<svg width="1267" height="256" viewBox="0 0 1267 256" fill="#000000" xmlns="http://www.w3.org/2000/svg">
<g style="mix-blend-mode:difference">
<path d="M236.933 6.9598H177.397V13.0118C206.712 13.0118 206.41 16.0378 202.179 34.1938L158.358 220.596H157.452L113.329 34.1938C109.098 16.0378 108.796 13.0118 138.11 13.0118V6.9598H75.5526V13.0118C92.7785 13.0118 96.7073 16.0378 100.938 34.1938L115.747 96.5295L84.0145 220.596H83.1078L38.0785 33.8912C33.5453 16.0378 33.2431 13.0118 62.5575 13.0118V6.9598H0V13.0118C17.226 13.0118 21.1547 16.0378 25.6879 33.8912L79.1791 256H84.3167L119.977 115.291L153.221 256H159.265L211.547 34.1938C215.778 16.0378 219.707 13.0118 236.933 13.0118V6.9598Z" fill="#000000"/>
<path d="M388.253 6.9598H245.912V13.0118C275.226 13.0118 277.039 16.3404 277.039 34.799V221.201C277.039 239.66 275.226 242.988 245.912 242.988V249.04H389.159L390.368 244.804L406.688 190.638L400.946 188.823C387.044 235.423 382.511 239.962 364.076 239.962H302.123C290.337 239.962 287.919 236.936 287.919 222.714V126.487H338.086C356.521 126.487 359.845 128.605 359.845 160.681H365.889V83.2151H359.845C359.845 115.291 356.521 117.409 338.086 117.409H287.919V16.0378H361.356C379.791 16.0378 383.417 19.0638 387.346 58.4019L393.39 57.7967L388.857 12.104L388.253 6.9598Z" fill="#000000"/>
<path d="M618.535 6.9598H547.213V13.0118C576.527 13.0118 578.341 16.3404 578.341 34.799V226.345H577.434L442.648 6.9598H409.707V13.0118C425.422 13.0118 432.373 14.5248 440.835 26.9314V221.201C440.835 239.66 439.022 242.988 409.707 242.988V249.04H481.029V242.988C451.715 242.988 449.901 239.66 449.901 221.201V41.4562L581.363 256H587.407V34.799C587.407 16.3404 589.22 13.0118 618.535 13.0118V6.9598Z" fill="#000000"/>
<path d="M628.097 249.04H634.141C634.141 235.423 635.652 230.884 640.487 230.884C649.252 230.884 658.62 255.092 694.281 255.092C721.48 255.092 748.679 235.726 748.679 200.624C748.679 165.22 731.151 152.208 691.259 116.199C669.197 96.5295 639.883 76.5579 639.883 47.5083C639.883 29.3522 651.367 9.9858 679.775 9.9858C710.902 9.9858 733.87 38.4303 733.87 76.8605H739.915V6.9598H733.87C733.87 23.6028 732.359 25.1158 729.942 25.1158C724.2 25.1158 713.32 0.907785 680.077 0.907785C649.554 0.907785 627.795 19.0638 627.795 48.7187C627.795 75.9527 642.905 89.2671 674.939 117.712C706.369 144.946 736.59 167.943 736.59 198.506C736.59 226.648 719.969 246.014 691.863 246.014C662.247 246.014 634.141 214.544 634.141 163.102H628.097V249.04Z" fill="#000000"/>
<path d="M760.614 249.04H835.864C903.257 249.04 949.797 201.229 949.797 128C949.797 54.7707 905.372 6.9598 835.864 6.9598H760.614V13.0118C789.928 13.0118 791.741 16.3404 791.741 34.799V221.201C791.741 239.66 789.928 242.988 760.614 242.988V249.04ZM835.864 239.962C823.171 239.962 811.083 238.449 802.621 234.515V21.4846C811.083 17.5508 823.171 16.0378 835.864 16.0378C897.213 16.0378 937.709 61.1253 937.709 128C937.709 194.875 897.213 239.962 835.864 239.962Z" fill="#000000"/>
<path d="M1108.07 222.411L1039.46 0H1033.42L964.818 222.411C959.378 239.962 954.845 242.988 937.619 242.988V249.04H997.457V242.988C968.142 242.988 969.049 239.962 974.489 222.411L991.11 168.548H1078.75L1095.37 222.411C1100.81 239.962 1101.72 242.988 1072.4 242.988V249.04H1135.26V242.988C1118.04 242.988 1113.51 239.962 1108.07 222.411ZM993.83 159.47L1034.33 27.5366H1035.23L1076.03 159.47H993.83Z" fill="#000000"/>
<path d="M1186.91 221.201V142.525L1236.48 32.3782C1244.03 15.4326 1249.77 13.0118 1267 13.0118V6.9598H1206.56V13.0118C1235.87 13.0118 1233.76 15.4326 1226.2 32.3782L1183.29 128.605H1182.38L1134.93 32.0756C1127.08 15.4326 1124.66 13.0118 1153.97 13.0118V6.9598H1089.9V13.0118C1107.13 13.0118 1113.17 15.4326 1121.33 31.773L1176.03 142.525V221.201C1176.03 239.66 1174.22 242.988 1144.91 242.988V249.04H1218.04V242.988C1188.73 242.988 1186.91 239.66 1186.91 221.201Z" fill="#000000"/>
</g>
</svg>
